<?xml version="1.0" encoding="UTF-8"?>
<svg id="a" data-name="Layer 1" xmlns="http://www.w3.org/2000/svg" xmlns:xlink="http://www.w3.org/1999/xlink" viewBox="0 0 797.73 799.14">
  <defs>
    <style>
      .g {
        fill: #bed58d;
      }

      .h {
        fill: #3b4042;
      }

      .i {
        fill: #f7d487;
      }

      .j {
        fill: #f8d486;
      }

      .k {
        fill: #fdee8f;
      }

      .l {
        fill: #121212;
      }

      .m {
        fill: #d67713;
      }

      .n {
        fill: url(#c);
      }

      .o {
        fill: url(#d);
      }

      .p {
        fill: #fef1d0;
      }

      .q {
        fill: #ea8213;
      }

      .r {
        fill: #f7d489;
      }

      .s {
        fill: #b66410;
      }

      .t {
        fill: #bdd487;
      }

      .u {
        fill: #dbda74;
      }

      .v {
        fill: #f7d285;
      }

      .w {
        fill: #2a2e32;
      }

      .x {
        fill: #b9630d;
      }

      .y {
        fill: #d7e8ab;
      }

      .z {
        fill: url(#e);
      }

      .aa {
        fill: #e5eba0;
      }

      .ab {
        fill: url(#f);
      }

      .ac {
        fill: #feb04f;
      }

      .ad {
        fill: #ef8115;
      }

      .ae {
        fill: #3b3f42;
      }

      .af {
        fill: #fdef8f;
      }

      .ag {
        fill: #faeabb;
      }

      .ah {
        fill: url(#b);
      }

      .ai {
        fill: #b62e2e;
      }

      .aj {
        fill: #feb14f;
      }

      .ak {
        fill: #fef1cf;
      }

      .al {
        fill: #0c0d0f;
      }

      .am {
        fill: #0c0c0d;
      }
    </style>
    <linearGradient id="b" x1="-167.02" y1="938.4" x2="-155.77" y2="1735.32" gradientTransform="translate(560 -940)" gradientUnits="userSpaceOnUse">
      <stop offset="0" stop-color="#d7e8ab"/>
      <stop offset="1" stop-color="#feee8d"/>
    </linearGradient>
    <linearGradient id="c" x1="382.03" y1="160.99" x2="531.61" y2="315.72" gradientUnits="userSpaceOnUse">
      <stop offset="0" stop-color="#fd991b"/>
      <stop offset=".93" stop-color="#f78b18"/>
    </linearGradient>
    <linearGradient id="d" x1="313.8" y1="101.08" x2="386.94" y2="164.1" gradientUnits="userSpaceOnUse">
      <stop offset="0" stop-color="#ee8015"/>
      <stop offset="1" stop-color="#f78b18"/>
    </linearGradient>
    <linearGradient id="e" x1="147.78" y1="473.82" x2="337.95" y2="652.25" gradientUnits="userSpaceOnUse">
      <stop offset="0" stop-color="#fd991b"/>
      <stop offset=".93" stop-color="#f78b18"/>
    </linearGradient>
    <linearGradient id="f" x1="-22.09" y1="1469.37" x2="55.98" y2="1572.07" gradientTransform="translate(560 -940)" gradientUnits="userSpaceOnUse">
      <stop offset="0" stop-color="#f28616"/>
      <stop offset="1" stop-color="#fc991a"/>
    </linearGradient>
  </defs>
  <path class="ah" d="M795.97,161.97c1.06,16.36-.23,34.38,0,51,.98,71.91.21,144.07,0,216-.19,66.29,4.05,139.68,0,205-5.18,83.54-77.25,156.57-161,162-153.76,9.97-318.15-7.48-473,0-82.17-6.05-150.52-73.47-160.85-154.65L0,164.5C7.16,77.69,77.68,7.16,164.5,0l476.81,1.14c80.43,9.81,149.37,79.22,154.66,160.84ZM316.97,229.97c-12.06,18.63-21,39.55-33.17,57.33-10.15,14.82-36.6,37.81-38.71,54.29-1.23,9.62,0,23.06,2.89,32.39-.32,8.22,2.89,16.3,5,24-6.52-1.88-27.56,7.72-35,9-39.65-34.95-48.07-67.07-22.16-115.66,4.96-9.3,35.94-45.38,3.12-40.88-39.01,5.36-76.52,60.13-77.99,98.01-.15,3.83,2.63,17.82,2.03,18.53-1.07,1.26-21.54-16.54-20.02,11.54s37.67,61.14,65.03,63.47c-26.34,28.04-27.27,51.54-36.67,85.83-8.79,32.07-18.52,41.83-34.33,69.17-14.62,25.28-49.45,70.07-19,94,.39.3.4,6.39,7,5,3.52,4.51,12.36,9.28,18.23,8.81,8.77-.7,18.9-17.92,24.13-15.74,6.17,2.57-8.04,16.41-3.87,14.92,13.6-4.88,27.17-51.28,35.52-62.99,1.52-2.13.68-3.08,4.14-4.36,7.18-2.67,23.18-3.8,32.86-6.64s39.28-18.15,42.94-18.53c1-.1,2.84,1.07,4.06,1.53,1.53.57,5.2,3.79,8,5-4.42,34.56,5.94,64.73,33,87-51.03,3.62-102.63,2.92-153.33,10.17-9.84,1.41-48.76,7.24-54.12,13.88-7.77,9.64,28.15,15.36,33.43,16.47,125.02,26.26,366.03,25.19,492.33,3.29,112.31-19.47-11.08-34.63-42.83-37.79-25-2.5-50.35-3.43-75.48-4.02-3.67-3.86-24.8-14.2-30-15-7.56-16-13.56-32.54-20-49,25.12-3.45,47.35-11.24,68-26-.71,2.88,4.97,2.52,6.7,2.8,11.13,1.81,22.57,3.42,33.82,4.18,15.76,1.06,46.05-1.65,58.91,1.09,3.42.73,14.04,10.14,17.56,12.94,23.38,18.55,27.05,30.16,60,27,3.88-.37,3.69.47,9-1,11.31-3.14,18.64-6.15,26-16,2.6-3.48,4.24-1.06,4-9,13.68-16.67-23.32-54.69-36-56-23.41-25.28-58.7-34.14-89.88-46.11-1.53-16.61-2.3-33.3-4.12-49.89-.25-2.28.17-4.7,0-7,8.9-3.96,45.78-26.72,49.1-34.48,2.36-5.52-7.95-15.73-7.09-17.5.78-1.62,26.98-11.57,28.8-20.75,1.31-6.57-12.42-19.82-16.22-26.35-5.54-9.49-23.5-63.54-21.4-71.32.23-.86,11.65-8.66,13.85-11.07,34.08-37.35,49.37-114.8,44.94-164-5.57-61.95-62.38-23.85-91.28-3.34-8.84,6.27-52.35,46.37-55.99,46.6-1.86.12-29.58-10.12-35.5-11.49-15.89-3.69-31.94-6.3-48.21-7.79-8.84-22.77-17.4-45.47-27.99-67.51-8.05-16.77-29.36-63.21-52.52-60.05-21.82,2.98-47.77,82.46-52.16,101.87-7.12,31.47-11.16,66.55.68,97.18ZM154.72,216.23c-29.97,3.65-68.9,55.92-74.62,84.37-1.12,5.57-7.1,34.45,4.84,29.85,4.88-1.88,13.37-34.48,16.86-42.14,7.65-16.78,17.61-28.63,31.16-40.84,4.78-4.3,53.35-35.09,21.75-31.24ZM673.71,495.19c-15.42,4.68,21.72,25.31,25.73,28.82,9.56,8.38,19.62,21.08,25.7,32.3,3.37,6.21,12.09,38.6,21.44,30.76,10.76-9.01-14.44-52.92-21.63-61.57-7.77-9.35-39.16-33.98-51.24-30.31Z"/>
  <path class="k" d="M634.97,795.97H161.97c154.85-7.48,319.24,9.97,473,0Z"/>
  <path class="aa" d="M796.97,428.97h-1c.21-71.93.98-144.09,0-216h1v216Z"/>
  <path class="k" d="M795.97,633.97c4.05-65.32-.19-138.71,0-205h1c0,68.3.83,136.73-1,205Z"/>
  <path class="y" d="M796.97,212.97h-1c-.23-16.62,1.06-34.64,0-51,1.84,16.85,1,34.07,1,51Z"/>
  <path class="u" d="M353.97,697.97c3.57,6.07-2.55,9.78,13,6,4.53,6.01,8.84,12.51,14,18,18.02,19.16,33.47,24.81,60,25,3.85.03,7.01-.85,10-1,6.28-.32,13.9-.76,20-2,2.12-.43,4.45.64,6.98-.52.92-.43,2.79-4.34,4.02-5.48,9.55-8.82,12.03-20.46,2-31,25.13.59,50.48,1.52,75.48,4.02,31.75,3.17,155.14,18.32,42.83,37.79-126.3,21.9-367.31,22.97-492.33-3.29-5.28-1.11-41.2-6.83-33.43-16.47,5.36-6.64,44.28-12.47,54.12-13.88,50.71-7.25,102.31-6.54,153.33-10.17,16.05,13.21,31.67,16.09,52.47,13.97,15.44-1.57,17.92-5,17.53-20.97Z"/>
  <path class="g" d="M154.72,216.23c31.6-3.85-16.98,26.93-21.75,31.24-13.55,12.21-23.51,24.06-31.16,40.84-3.49,7.67-11.98,40.26-16.86,42.14-11.94,4.6-5.96-24.28-4.84-29.85,5.72-28.45,44.65-80.72,74.62-84.37Z"/>
  <path class="t" d="M673.71,495.19c12.08-3.67,43.47,20.96,51.24,30.31,7.2,8.65,32.39,52.56,21.63,61.57-9.36,7.84-18.08-24.55-21.44-30.76-6.08-11.22-16.14-23.92-25.7-32.3-4-3.51-41.15-24.14-25.73-28.82Z"/>
  <path class="ad" d="M217.97,406.97c.8.7,2.24.77,1.99,1.99-16.66,2.94-40.11,20.37-51.99,33.01-27.36-2.32-63.54-35.95-65.03-63.47s18.94-10.28,20.02-11.54c.61-.71-2.18-14.7-2.03-18.53,1.47-37.88,38.98-92.65,77.99-98.01,32.82-4.51,1.84,31.58-3.12,40.88-25.9,48.59-17.48,80.71,22.16,115.66Z"/>
  <path class="n" d="M621.15,309.57c.23-.86,11.65-8.66,13.85-11.07,34.08-37.35,49.37-114.8,44.94-164-5.57-61.95-62.38-23.85-91.28-3.34-8.84,6.27-52.35,46.37-55.99,46.6-1.86.12-29.58-10.12-35.5-11.49-15.81-3.67-31.77-6.27-47.96-7.76.05.28.05.59-.04.94,0,0,0,0,0,0-15.17-1.81-30.57-2.71-41.2-1.47-25.62,2.99-55.56,26-72,45-7.22,8.34-13.06,17.82-19,27-12.06,18.63-21,39.55-33.17,57.33-10.15,14.82-36.6,37.8-38.71,54.29-1.23,9.62,0,23.06,2.89,32.39.41-10.51,9.1-34.62,21.01-36.53,7.29-1.17,24.54,9.48,33.79,11.23,24.13,4.55,21.6-5.55,39.19-13.69,61.79-28.6,83.55,25.15,127.64,48.86,40.36,21.69,135.71,15.23,92.77,86.05-2,3.3-18.51,21.2-17.41,22.08.8.63,17.5-3.29,20-3.99,3.8-1.06,8.22-2.67,12-4,2.56-.91,9.03-3.12,11-4,8.9-3.96,45.78-26.72,49.1-34.48,2.36-5.52-7.95-15.73-7.09-17.5.78-1.62,26.98-11.57,28.8-20.75,1.31-6.57-12.42-19.82-16.22-26.35-5.54-9.49-23.5-63.54-21.4-71.32ZM329.54,328.9c-18.78-3.61-6.68-43.51,6.15-46.71,33.87-8.45,19.97,51.73-6.15,46.71ZM480.5,352.03c-28.66,1.18-25-45.92-1.78-49.81,29.7-4.97,31.03,48.6,1.78,49.81ZM613.98,277.97c-1.18-1.08-6.66-21.72-12.17-29.33-4.58-6.32-19.52-15.95-19.82-17.24-.16-.69,5.89-8.98,6.54-12.37,3.8-19.96-17.1-15.08-17.54-16.55-2.25-7.5,62.7-73.91,80.26-67.33,4.31,1.61,2.96,24.12,2.71,29.29-1.35,27.7-10.85,64.02-23.12,88.88-1.05,2.12-14.2,27.08-16.85,24.64Z"/>
  <path class="o" d="M449.21,158.51c-.08,0-.17-.02-.25-.03-.12-.3-.24-.61-.35-.91-.1-.26-.2-.53-.31-.79-8.61-22.2-17.01-44.32-27.33-65.81-8.05-16.77-29.36-63.21-52.52-60.05-21.82,2.98-47.77,82.46-52.16,101.87-7.12,31.47-11.17,66.55.68,97.18,5.94-9.18,11.78-18.66,19-27-.62-34.78,6.64-74.3,21.83-105.67,8.98-18.54,10.67-25.62,25.2-4.86,9.27,13.25,14.08,30.6,19.97,45.53,1.65,6.67,3.72,13.24,5,20,10.63-1.24,26.03-.34,41.2,1.47.09-.34.1-.65.04-.94Z"/>
  <path class="ac" d="M613.98,277.97c-1.18-1.08-6.66-21.72-12.17-29.33-4.58-6.32-19.52-15.95-19.82-17.24-.16-.69,5.89-8.98,6.54-12.37,3.8-19.96-17.1-15.08-17.54-16.55-2.25-7.5,62.7-73.91,80.26-67.33,4.31,1.61,2.96,24.12,2.71,29.29-1.35,27.7-10.85,64.02-23.12,88.88-1.05,2.12-14.2,27.08-16.85,24.64Z"/>
  <path class="aj" d="M402.97,137.97c1.65,6.67,3.72,13.24,5,20-25.62,2.99-55.56,26-72,45-.62-34.78,6.64-74.3,21.83-105.67,8.98-18.54,10.67-25.62,25.2-4.86,9.27,13.25,14.08,30.6,19.97,45.53Z"/>
  <path class="ae" d="M478.72,302.22c29.7-4.97,31.03,48.6,1.78,49.81-28.66,1.18-25-45.92-1.78-49.81Z"/>
  <path class="h" d="M335.69,282.19c33.87-8.45,19.97,51.73-6.15,46.71-18.78-3.61-6.68-43.51,6.15-46.71Z"/>
  <path class="z" d="M252.97,397.97c.55.16.72.77,1,1,9.13,47.72,47.61,89.87,94,105,10.31,16.62,20.55,33.42,32.61,48.89,31.29,40.11,34.12,40.82,53.39,90.11,6.44,16.46,12.44,33,20,49-26.51-4.09-54.68,12.37-73,30-5.16-5.49-9.47-11.99-14-18-11.96-15.85-21.29-33.67-34-49,.5-11.64-22.03-36.29-24.02-49.99-5.19,5.69,7.32,34.69,6.01,35.98-3.09,3.05-56.59-19.79-63.99-22.99-2.8-1.21-6.47-4.43-8-5,8.1-15.04,12.19-33.99,12.02-50.99-7.19,34.71-32.92,48.88-59.02,67.99-9.68,2.84-25.68,3.97-32.86,6.64-3.46,1.29-2.62,2.24-4.14,4.36-27.79-2.98-45.68-23.57-62-44,15.81-27.34,25.55-37.09,34.33-69.17,9.39-34.29,10.32-57.79,36.67-85.83,11.88-12.65,35.34-30.07,51.99-33.01.24-1.22-1.19-1.28-1.99-1.99,7.44-1.28,28.48-10.88,35-9Z"/>
  <path class="m" d="M332.97,654.97c-.2,4.69-3.53,7.39-2.58,12.01,1.51,7.41,19.19,23.52,23.58,30.99.4,15.97-2.09,19.4-17.53,20.97-20.8,2.12-36.42-.76-52.47-13.97-27.06-22.27-37.42-52.44-33-87,7.4,3.2,60.91,26.04,63.99,22.99,1.31-1.29-11.19-30.29-6.01-35.98,1.98,13.7,24.52,38.35,24.02,49.99Z"/>
  <path class="s" d="M242.97,612.97c-1.22-.45-3.07-1.63-4.06-1.53-3.66.38-33.45,15.75-42.94,18.53,26.1-19.11,51.83-33.28,59.02-67.99.18,17-3.92,35.95-12.02,50.99Z"/>
  <path class="q" d="M347.97,503.97c-46.39-15.13-84.87-57.28-94-105,1.71,1.39,16.21,25.03,20.97,30.53,17.38,20.07,48.35,36.97,61.56,52.44,4.55,5.33,7.55,15.74,11.46,22.04Z"/>
  <path class="af" d="M366.97,703.97c-15.55,3.78-9.43.07-13-6-4.39-7.47-22.07-23.58-23.58-30.99-.94-4.63,2.38-7.32,2.58-12.01,12.71,15.33,22.04,33.15,34,49Z"/>
  <path class="ak" d="M453.97,691.97c5.2.8,26.33,11.14,30,15,10.03,10.54,7.55,22.18-2,31l-3.8-13.7c-11.4-13.83-1.68,14.6-7.2,19.7-6.1,1.24-13.72,1.68-20,2,2.22-5.71-2.85-27.75-10.49-26.04-6.02,1.35,6.27,20.93.49,27.04-26.53-.19-41.98-5.84-60-25,18.32-17.63,46.49-34.09,73-30Z"/>
  <path class="i" d="M450.97,745.97c-2.99.15-6.15,1.03-10,1,5.78-6.1-6.51-25.68-.49-27.04,7.64-1.72,12.71,20.33,10.49,26.04Z"/>
  <path class="j" d="M470.97,743.97c5.52-5.1-4.2-33.53,7.2-19.7l3.8,13.7c-1.23,1.14-3.1,5.05-4.02,5.48-2.52,1.16-4.86.09-6.98.52Z"/>
  <path class="p" d="M158.97,640.97c-8.35,11.71-21.92,58.11-35.52,62.99-4.17,1.5,10.04-12.34,3.87-14.92-5.23-2.18-15.36,15.04-24.13,15.74-5.87.47-14.7-4.3-18.23-8.81,10.37-2.19,26.4-43.07-7-5-30.45-23.93,4.38-68.72,19-94,16.32,20.43,34.21,41.02,62,44Z"/>
  <path class="r" d="M84.97,695.97c-6.6,1.39-6.61-4.7-7-5,33.4-38.07,17.37,2.81,7,5Z"/>
  <path class="ab" d="M587.97,486.97c1.82,16.59,2.59,33.28,4.12,49.89,31.19,11.97,66.47,20.83,89.88,46.11-18.87-1.95-60.75,34.43-63,55-3.52-2.79-14.15-12.21-17.56-12.94-12.86-2.74-43.16-.02-58.91-1.09-11.25-.76-22.69-2.36-33.82-4.18-1.73-.28-7.41.08-6.7-2.8,43.21-30.88,50.74-56.86,69-103,1.06-2.69,1.8-5.37,3-8,2.91-6.4,9.08-13.93,14-19Z"/>
  <path class="p" d="M681.97,582.97c12.68,1.31,49.68,39.33,36,56-.25-8.51-11.41-22.04-14-14.47-.41,1.21,9.36,20.17,10,23.47-7.36,9.85-14.69,12.86-26,16,4.85-4.48-4.02-26.59-8.48-24.99s3.55,21.35-.52,25.99c-32.95,3.16-36.62-8.45-60-27,2.25-20.57,44.13-56.95,63-55Z"/>
  <path class="i" d="M687.97,663.97c-5.31,1.47-5.12.63-9,1,4.07-4.64-3.79-24.46.52-25.99s13.33,20.51,8.48,24.99Z"/>
  <path class="v" d="M717.97,638.97c.24,7.94-1.4,5.52-4,9-.64-3.3-10.41-22.26-10-23.47,2.59-7.57,13.75,5.96,14,14.47Z"/>
  <path class="x" d="M587.97,479.97c.17,2.3-.25,4.72,0,7-4.92,5.07-11.09,12.6-14,19l3-22c2.56-.91,9.03-3.12,11-4Z"/>
  <path class="ak" d="M341.97,334.97c61.79-28.6,83.55,25.15,127.64,48.86,40.36,21.69,135.71,15.23,92.77,86.05-2,3.3-18.51,21.2-17.41,22.08.8.63,17.5-3.29,20-3.99l-49.82,11.68c-20.67,3.04-41.18,7.21-62.17,6.82,27.43,12.17,58.48,16.84,88.34,13.36l29.65-5.85c-18.26,46.14-25.79,72.12-69,103-20.65,14.76-42.88,22.55-68,26-19.27-49.29-22.1-50-53.39-90.11-12.06-15.46-22.3-32.26-32.61-48.89-3.91-6.3-6.91-16.71-11.46-22.04-13.21-15.47-44.18-32.37-61.56-52.44-4.76-5.5-19.27-29.14-20.97-30.53-.28-.23-.45-.84-1-1-2.11-7.7-5.32-15.78-5-24,.41-10.51,9.1-34.62,21.01-36.53,7.29-1.17,24.54,9.48,33.79,11.23,24.13,4.55,21.6-5.55,39.19-13.69ZM347.97,348.97c-21.25,4.63-19.56,27.98-6,40,10.31,9.14,26.38,5.12,18.05,21.55-2.91,5.75-14.02,10.37-20.48,9.37-6.78-1.05-27.73-33.48-22.33-2.67,2.73,15.62,15.91,13.77,22.25,18.74,5.48,4.29,4.35,23.68,16.5,33,13.3,10.2,36.54,8.36,51,2,13.4-5.89,41.69-34.99,40.02-50.49-1.54-14.31-19.49,4.77-25.75,7.26-15.54,6.17-53.08,2.66-56.23-17.35-2.26-14.41,3.37-9.89,10.8-12.08,11.37-3.34,23.01-12.31,27.17-23.83,3.81-10.55,1.1-12.92-8.02-18.52-11.27-6.92-34.25-9.78-47-7Z"/>
  <path class="ag" d="M576.97,483.97l-3,22c-1.2,2.63-1.94,5.31-3,8l-29.65,5.85c-29.86,3.49-60.91-1.18-88.34-13.36,21,.4,41.51-3.78,62.17-6.82l49.82-11.68c3.8-1.06,8.22-2.67,12-4Z"/>
  <path class="w" d="M394.97,355.97c9.12,5.6,11.82,7.97,8.02,18.52-4.16,11.52-15.8,20.49-27.17,23.83-7.44,2.18-13.06-2.33-10.8,12.08,3.14,20,40.69,23.52,56.23,17.35,6.26-2.49,24.21-21.57,25.75-7.26,1.67,15.5-26.62,44.59-40.02,50.49-18.15,3.5-33.54,6.53-51-2-12.15-9.32-11.01-28.71-16.5-33-6.35-4.97-19.52-3.13-22.25-18.74-5.4-30.81,15.55,1.62,22.33,2.67s17.56-3.62,20.48-9.37c8.32-16.43-7.74-12.41-18.05-21.55-10-12.18-14.05-34.49,6-39,14.2-3.19,33.29,2.5,47,6ZM418.96,438.97c-.54-.51-10.91,3.02-14.46,3.04-10.97.04-20.61-2.88-30.23-7.84-2.08-1.08-9.16-7.98-9.79-8.01-.54-.03-6.81,4.96-8.99,5.84-2.8,1.13-12.07,2.53-12.52,2.99-.91.93,11.06,20.71,12.99,22.49,15.99,14.72,43.34,7.83,56.51-7.5,1.03-1.2,7.22-10.31,6.48-11.01Z"/>
  <path class="am" d="M406.97,470.97c-14.46,6.36-37.7,8.2-51-2,17.46,8.53,32.85,5.5,51,2Z"/>
  <path class="l" d="M347.97,349.97c-20.05,4.51-16,26.82-6,39-13.56-12.02-15.25-35.37,6-40v1Z"/>
  <path class="al" d="M394.97,355.97c-13.71-3.5-32.8-9.19-47-6v-1c12.75-2.78,35.73.08,47,7Z"/>
  <path class="ai" d="M418.96,438.97c.74.7-5.45,9.8-6.48,11.01-13.17,15.33-40.53,22.22-56.51,7.5-1.93-1.78-13.9-21.57-12.99-22.49.45-.46,9.72-1.86,12.52-2.99,2.18-.88,8.45-5.86,8.99-5.84.63.03,7.71,6.94,9.79,8.01,9.62,4.96,19.26,7.88,30.23,7.84,3.55-.01,13.92-3.54,14.46-3.04Z"/>
  <path class="r" d="M115.88,708.45c-6.6,1.39-6.61-4.7-7-5,33.4-38.07,17.37,2.81,7,5Z"/>
</svg>