<?xml version="1.0" encoding="UTF-8"?><svg id="b" xmlns="http://www.w3.org/2000/svg" viewBox="0 0 1024 1024"><defs><style>.c{fill:#fbf0dc;}.d{fill:#f47b44;}.e{fill:#231f20;}.f{fill:#f79027;}</style></defs><polygon class="f" points="474 704.7 474 754.6 395.9 754.6 395.9 732 368.4 732 368.4 755.8 342.5 755.8 342.5 704.7 369.2 704.7 369.2 626.4 395.9 626.4 420.5 626.4 420.5 654.2 446.2 654.2 446.2 680 474 680 474 704.7"/><polygon class="f" points="683.1 704.7 683.1 755.8 657.2 755.8 657.2 732 631.1 732 631.1 809.3 630.9 809.3 630.9 754.6 552.6 754.6 552.6 704.7 552.6 680 578.8 680 578.8 654.2 604.4 654.2 604.4 626.4 629.7 626.4 656.4 626.4 656.4 704.7 683.1 704.7"/><polygon class="f" points="711.7 466.3 711.7 546.7 683.1 546.7 683.1 573.5 657.7 573.5 657.7 546.6 631.1 546.6 631.1 520.8 604.3 520.8 578.8 520.8 578.8 494 604.9 494 604.9 439.4 578.8 439.4 578.8 494 553.5 494 551.9 494 473.7 494 472.1 494 446.2 494 446.2 439.4 420.7 439.4 420.7 494 446.2 494 446.2 520.8 420.6 520.8 395.9 520.8 395.9 546.6 367.3 546.6 367.3 573.3 342.5 573.3 342.5 546.7 313.9 546.7 313.9 466.3 342.5 466.3 342.5 393 313.9 393 313.9 235.5 367.3 235.5 367.3 262.3 395.9 262.3 395.9 289 421.6 289 421.6 342.8 422.4 342.8 448.3 342.8 512.8 342.8 577.3 342.8 603.2 342.8 604 342.8 604 289 630.8 289 630.8 262.3 657.5 262.3 657.5 235.5 711.7 235.5 711.7 393 683.1 393 683.1 466.3 711.7 466.3"/><rect class="e" x="711.7" y="466.3" width="26.7" height="80.4"/><rect class="e" x="711.7" y="235.5" width="26.7" height="157.4"/><polygon class="e" points="711.7 677.1 711.7 782.6 683.8 782.6 683.8 809.3 657.2 809.3 656.4 809.3 631.4 809.3 631.1 809.3 631.1 732 657.2 732 657.2 755.8 683.1 755.8 683.1 704.7 656.4 704.7 656.4 626.4 629.7 626.4 629.7 600.4 657.7 600.4 657.7 573.5 683.1 573.5 683.1 677.1 711.7 677.1"/><rect class="e" x="683.1" y="546.7" width="28.6" height="26.7"/><rect class="e" x="683.1" y="393" width="28.6" height="73.3"/><polygon class="e" points="711.7 208.8 711.7 235.5 657.5 235.5 657.2 235.5 657.2 208.8 711.7 208.8"/><polygon class="c" points="657.7 573.5 657.7 600.4 629.7 600.4 629.7 626.4 604.4 626.4 604.4 654.2 578.8 654.2 578.8 680 552.6 680 552.6 704.7 525.4 704.7 525.2 704.7 525.2 782.4 498.5 782.4 498.5 704.7 474 704.7 474 680 446.2 680 446.2 654.2 420.5 654.2 420.5 626.4 395.9 626.4 395.9 600.4 367.3 600.4 367.3 573.3 367.3 546.6 395.9 546.6 395.9 520.8 420.6 520.8 446.2 520.8 446.2 494 472.1 494 472.1 520.7 473.7 520.7 498.5 520.7 498.5 546.7 447.5 546.7 447.5 573.5 472.4 573.5 472.4 600.4 473.7 600.4 498.5 600.4 498.5 626.4 525.2 626.4 525.2 600.4 551.9 600.4 553.2 600.4 553.2 573.5 578.1 573.5 578.1 546.7 526.5 546.7 526.5 520.7 551.9 520.7 553.5 520.7 553.5 494 578.8 494 578.8 520.8 604.3 520.8 631.1 520.8 631.1 546.6 657.7 546.6 657.7 573.5"/><polygon class="e" points="657.5 235.5 657.5 262.3 630.8 262.3 630.8 235.5 657.2 235.5 657.5 235.5"/><polygon class="e" points="631.4 809.3 631.4 835.6 552.6 835.6 552.6 809.3 630.9 809.3 631.1 809.3 631.4 809.3"/><rect class="c" x="552.6" y="754.6" width="78.4" height="54.6"/><rect class="e" x="604" y="262.3" width="26.7" height="26.7"/><rect class="e" x="578.8" y="439.4" width="26.1" height="54.6"/><polygon class="e" points="604 289 604 342.8 603.2 342.8 577.3 342.8 512.8 342.8 448.3 342.8 422.4 342.8 421.6 342.8 421.6 289 448.3 289 448.3 316.1 512.8 316.1 577.3 316.1 577.3 289 604 289"/><polygon class="e" points="578.1 546.7 578.1 573.5 553.2 573.5 553.2 600.4 551.9 600.4 525.2 600.4 525.2 573.5 525.2 573.2 498.5 573.2 498.5 573.5 498.5 600.4 473.7 600.4 472.4 600.4 472.4 573.5 447.5 573.5 447.5 546.7 498.5 546.7 498.5 520.7 473.7 520.7 472.1 520.7 472.1 494 473.7 494 551.9 494 553.5 494 553.5 520.7 551.9 520.7 526.5 520.7 526.5 546.7 578.1 546.7"/><polygon class="e" points="552.6 754.6 552.6 809.3 527.1 809.3 525.2 809.3 498.5 809.3 474 809.3 474 754.6 474 704.7 498.5 704.7 498.5 782.4 498.5 782.6 525.2 782.6 525.2 782.4 525.4 782.4 525.4 704.7 552.6 704.7 552.6 754.6"/><rect class="e" x="525.2" y="704.7" width=".2" height="77.7"/><rect class="e" x="498.5" y="600.4" width="26.7" height="26"/><rect class="d" x="498.5" y="573.5" width="26.7" height="26.9"/><rect class="e" x="498.5" y="573.2" width="26.7" height=".2"/><rect class="e" x="395.9" y="809.3" width="78.1" height="26.4"/><rect class="c" x="395.9" y="754.6" width="78.1" height="54.6"/><rect class="e" x="420.7" y="439.4" width="25.5" height="54.6"/><rect class="e" x="395.9" y="262.3" width="25.6" height="26.7"/><polygon class="e" points="395.9 754.6 395.9 809.3 369.2 809.3 368.4 809.3 341.8 809.3 341.8 782.6 313.9 782.6 313.9 677.1 342.5 677.1 342.5 573.5 342.5 573.3 367.3 573.3 367.3 600.4 395.9 600.4 395.9 626.4 369.2 626.4 369.2 704.7 342.5 704.7 342.5 755.8 368.4 755.8 368.4 732 395.9 732 395.9 754.6"/><rect class="e" x="367.3" y="235.5" width="28.6" height="26.7"/><rect class="e" x="313.9" y="208.8" width="53.4" height="26.7"/><polygon class="e" points="342.5 573.3 342.5 573.5 313.9 573.5 313.9 546.7 342.5 546.7 342.5 573.3"/><rect class="e" x="313.9" y="393" width="28.6" height="73.3"/><rect class="e" x="287.1" y="466.3" width="26.7" height="80.4"/><rect class="e" x="287.1" y="235.5" width="26.7" height="157.4"/></svg>